<svg xmlns="http://www.w3.org/2000/svg" viewBox="0 0 200 200" width="200" height="200">
  <rect width="200" height="200" fill="white"/>

  <!-- QR Code pattern - simplified representation -->
  <!-- Top-left finder pattern -->
  <rect x="10" y="10" width="50" height="50" fill="black"/>
  <rect x="15" y="15" width="40" height="40" fill="white"/>
  <rect x="20" y="20" width="30" height="30" fill="black"/>

  <!-- Top-right finder pattern -->
  <rect x="140" y="10" width="50" height="50" fill="black"/>
  <rect x="145" y="15" width="40" height="40" fill="white"/>
  <rect x="150" y="20" width="30" height="30" fill="black"/>

  <!-- Bottom-left finder pattern -->
  <rect x="10" y="140" width="50" height="50" fill="black"/>
  <rect x="15" y="145" width="40" height="40" fill="white"/>
  <rect x="20" y="150" width="30" height="30" fill="black"/>

  <!-- Data modules (simplified pattern) -->
  <rect x="70" y="10" width="10" height="10" fill="black"/>
  <rect x="90" y="10" width="10" height="10" fill="black"/>
  <rect x="110" y="10" width="10" height="10" fill="black"/>

  <rect x="70" y="25" width="10" height="10" fill="black"/>
  <rect x="100" y="25" width="10" height="10" fill="black"/>
  <rect x="120" y="25" width="10" height="10" fill="black"/>

  <rect x="80" y="40" width="10" height="10" fill="black"/>
  <rect x="110" y="40" width="10" height="10" fill="black"/>

  <rect x="70" y="70" width="10" height="10" fill="black"/>
  <rect x="90" y="70" width="10" height="10" fill="black"/>
  <rect x="110" y="70" width="10" height="10" fill="black"/>
  <rect x="140" y="70" width="10" height="10" fill="black"/>
  <rect x="160" y="70" width="10" height="10" fill="black"/>
  <rect x="180" y="70" width="10" height="10" fill="black"/>

  <rect x="10" y="80" width="10" height="10" fill="black"/>
  <rect x="30" y="80" width="10" height="10" fill="black"/>
  <rect x="50" y="80" width="10" height="10" fill="black"/>
  <rect x="80" y="80" width="10" height="10" fill="black"/>
  <rect x="100" y="80" width="10" height="10" fill="black"/>
  <rect x="120" y="80" width="10" height="10" fill="black"/>

  <rect x="70" y="90" width="10" height="10" fill="black"/>
  <rect x="90" y="90" width="10" height="10" fill="black"/>
  <rect x="150" y="90" width="10" height="10" fill="black"/>
  <rect x="170" y="90" width="10" height="10" fill="black"/>

  <rect x="80" y="110" width="10" height="10" fill="black"/>
  <rect x="100" y="110" width="10" height="10" fill="black"/>
  <rect x="120" y="110" width="10" height="10" fill="black"/>
  <rect x="140" y="110" width="10" height="10" fill="black"/>
  <rect x="180" y="110" width="10" height="10" fill="black"/>

  <rect x="70" y="130" width="10" height="10" fill="black"/>
  <rect x="90" y="130" width="10" height="10" fill="black"/>
  <rect x="110" y="130" width="10" height="10" fill="black"/>
  <rect x="160" y="130" width="10" height="10" fill="black"/>

  <rect x="70" y="150" width="10" height="10" fill="black"/>
  <rect x="100" y="150" width="10" height="10" fill="black"/>
  <rect x="120" y="150" width="10" height="10" fill="black"/>
  <rect x="140" y="150" width="10" height="10" fill="black"/>
  <rect x="160" y="150" width="10" height="10" fill="black"/>
  <rect x="180" y="150" width="10" height="10" fill="black"/>

  <rect x="70" y="170" width="10" height="10" fill="black"/>
  <rect x="90" y="170" width="10" height="10" fill="black"/>
  <rect x="110" y="170" width="10" height="10" fill="black"/>
  <rect x="150" y="170" width="10" height="10" fill="black"/>
  <rect x="170" y="170" width="10" height="10" fill="black"/>

  <rect x="80" y="180" width="10" height="10" fill="black"/>
  <rect x="100" y="180" width="10" height="10" fill="black"/>
  <rect x="140" y="180" width="10" height="10" fill="black"/>
  <rect x="160" y="180" width="10" height="10" fill="black"/>
  <rect x="180" y="180" width="10" height="10" fill="black"/>
</svg>
