<svg xmlns="http://www.w3.org/2000/svg" viewBox="0 0 390 844" width="390" height="844">
  <defs>
    <linearGradient id="bgMobile" x1="0%" y1="0%" x2="100%" y2="100%">
      <stop offset="0%" style="stop-color:#667eea"/>
      <stop offset="100%" style="stop-color:#764ba2"/>
    </linearGradient>
  </defs>
  <rect width="390" height="844" rx="40" fill="url(#bgMobile)"/>

  <!-- Phone frame -->
  <rect x="10" y="10" width="370" height="824" rx="35" fill="#1a1a2e" stroke="#333" stroke-width="2"/>

  <!-- Status bar -->
  <rect x="10" y="10" width="370" height="44" rx="35" fill="#16213e"/>
  <circle cx="195" cy="30" r="8" fill="#333"/>

  <!-- Header -->
  <rect x="20" y="64" width="350" height="50" rx="8" fill="#16213e"/>
  <text x="40" y="98" font-family="Arial, sans-serif" font-size="20" fill="white" font-weight="bold">KOL Hub</text>

  <!-- Cards -->
  <rect x="20" y="130" width="350" height="120" rx="12" fill="#2d2d44"/>
  <rect x="20" y="265" width="170" height="100" rx="12" fill="#2d2d44"/>
  <rect x="200" y="265" width="170" height="100" rx="12" fill="#2d2d44"/>
  <rect x="20" y="380" width="350" height="150" rx="12" fill="#2d2d44"/>
  <rect x="20" y="545" width="350" height="100" rx="12" fill="#2d2d44"/>

  <!-- Text -->
  <text x="195" y="470" font-family="Arial, sans-serif" font-size="24" fill="#a78bfa" text-anchor="middle">Mobile View</text>
  <text x="195" y="510" font-family="Arial, sans-serif" font-size="14" fill="#888" text-anchor="middle">Your Personal OS</text>

  <!-- Bottom nav -->
  <rect x="20" y="780" width="350" height="50" rx="25" fill="#16213e"/>
</svg>
